<svg xmlns="http://www.w3.org/2000/svg" width="224" height="96" viewBox="0 0 224 96">
    <g fill="none" fill-rule="evenodd">
        <g stroke="#FFE66D" stroke-width="10">
            <path d="M18 18v60h60V18H18z"/>
            <path stroke-linecap="square" stroke-linejoin="bevel" d="M21 46.359L48.89 75 83 13"/>
        </g>
        <path fill="#F7FFF7" fill-rule="nonzero" d="M111.964 21.428h14.392v1.148h-6.608V41h-1.176V22.576h-6.608v-1.148zm25.088 0h12.628v1.148h-11.452v7.812h10.192v1.176h-10.192v8.288h11.816V41h-12.992V21.428zM176.84 41l-2.548-5.572H162.84L160.32 41h-1.288l8.876-19.572h1.26L178.128 41h-1.288zm-13.496-6.748h10.416l-5.236-11.48-5.18 11.48zm25.368-12.824h1.624l7.868 15.4 7.812-15.4h1.624V41h-1.12l-.028-17.948-8.036 15.82h-.532l-8.092-15.82V41h-1.12V21.428zm-90.608 34h14.392v1.148h-6.608V75h-1.176V56.576h-6.608v-1.148zM136.128 75l-2.548-5.572h-11.452L119.608 75h-1.288l8.876-19.572h1.26L137.416 75h-1.288zm-13.496-6.748h10.416l-5.236-11.48-5.18 11.48zm35.392-10.22c-1.456-.952-3.444-1.428-5.124-1.428-3.108 0-5.124 1.288-5.124 3.332 0 5.964 11.508 2.884 11.452 10.108 0 3.024-2.716 4.984-6.804 4.984-2.604 0-5.264-1.148-6.972-2.828l.616-1.036c1.596 1.652 4.088 2.66 6.384 2.66 3.36 0 5.516-1.456 5.516-3.752.056-6.132-11.452-2.996-11.452-10.052 0-2.828 2.576-4.648 6.44-4.648 1.988 0 4.144.644 5.6 1.596l-.532 1.064zM186.472 75h-1.484l-7.98-9.968-4.312 4.704V75h-1.176V55.428h1.176v12.6l11.704-12.6h1.456l-7.98 8.68L186.472 75zm21.392-16.968c-1.456-.952-3.444-1.428-5.124-1.428-3.108 0-5.124 1.288-5.124 3.332 0 5.964 11.508 2.884 11.452 10.108 0 3.024-2.716 4.984-6.804 4.984-2.604 0-5.264-1.148-6.972-2.828l.616-1.036c1.596 1.652 4.088 2.66 6.384 2.66 3.36 0 5.516-1.456 5.516-3.752.056-6.132-11.452-2.996-11.452-10.052 0-2.828 2.576-4.648 6.44-4.648 1.988 0 4.144.644 5.6 1.596l-.532 1.064z"/>
    </g>
</svg>
